<?xml version="1.0" encoding="iso-8859-1"?><!DOCTYPE svg PUBLIC "-//W3C//DTD SVG 1.1//EN" "http://www.w3.org/Graphics/SVG/1.1/DTD/svg11.dtd"><svg version="1.1" xmlns="http://www.w3.org/2000/svg" viewBox="0 0 502.686 502.686" style="fill:#000000;" xml:space="preserve"><path d="M466.447,96.788c-20.082,0-36.347,17.71-36.347,39.496c0,14.172,6.86,26.51,17.192,33.521 c-21.83,32.766-52.633,70.817-84.385,81.84c-41.783,14.517-80.739-74.7-99.916-127.721c14.215-5.35,24.569-19.953,24.569-37.274 c0-21.786-16.243-39.475-36.26-39.475c-19.975,0-36.239,17.688-36.239,39.475c0,17.321,10.332,31.903,24.569,37.274 c-19.133,53.021-58.047,142.238-99.894,127.721c-31.709-11.023-62.577-49.074-84.363-81.84 c10.289-7.01,17.17-19.327,17.17-33.521c0-21.786-16.286-39.496-36.304-39.496C16.264,96.788,0,114.498,0,136.284 c0,21.851,16.264,39.539,36.239,39.539c0.41,0,0.69-0.108,1.079-0.151l48.966,227.464h330.098l48.987-227.464 c0.345,0.022,0.69,0.151,1.1,0.151c19.953,0,36.217-17.688,36.217-39.539C502.664,114.498,486.4,96.788,466.447,96.788z"/><rect x="87.944" y="411.139" style="fill:#000000;" width="326.754" height="44.371"/></svg>