<?xml version="1.0" encoding="iso-8859-1"?><!DOCTYPE svg PUBLIC "-//W3C//DTD SVG 1.1//EN" "http://www.w3.org/Graphics/SVG/1.1/DTD/svg11.dtd"><svg version="1.1" xmlns="http://www.w3.org/2000/svg" viewBox="0 0 95 95" style="enable-background:new 0 0 95 95; fill:#000000;" xml:space="preserve"><path d="M93.5,4.75h-92C0.671,4.75,0,5.422,0,6.25v13.5c0,0.828,0.671,1.5,1.5,1.5h92c0.829,0,1.5-0.672,1.5-1.5V6.25 C95,5.422,94.329,4.75,93.5,4.75z"/><path d="M93.5,31.75H41c-0.829,0-1.5,0.672-1.5,1.5v10.5c0,0.828,0.671,1.5,1.5,1.5h52.5c0.829,0,1.5-0.672,1.5-1.5v-10.5 C95,32.422,94.329,31.75,93.5,31.75z"/><path d="M1.5,45.25h25.333c0.829,0,1.5-0.672,1.5-1.5v-10.5c0-0.828-0.671-1.5-1.5-1.5H1.5c-0.829,0-1.5,0.672-1.5,1.5v10.5 C0,44.578,0.671,45.25,1.5,45.25z"/><path d="M93.5,58.75H65c-0.829,0-1.5,0.672-1.5,1.5v7.5c0,0.828,0.671,1.5,1.5,1.5h28.5c0.829,0,1.5-0.672,1.5-1.5v-7.5 C95,59.422,94.329,58.75,93.5,58.75z"/><path d="M1.5,69.25h49.333c0.829,0,1.5-0.672,1.5-1.5v-7.5c0-0.828-0.671-1.5-1.5-1.5H1.5c-0.829,0-1.5,0.672-1.5,1.5v7.5 C0,68.578,0.671,69.25,1.5,69.25z"/><path d="M75.167,82.75H1.5c-0.829,0-1.5,0.672-1.5,1.5v4.5c0,0.828,0.671,1.5,1.5,1.5h73.667c0.829,0,1.5-0.672,1.5-1.5v-4.5 C76.667,83.422,75.996,82.75,75.167,82.75z"/><path d="M93.5,82.75h-8.839c-0.829,0-1.5,0.672-1.5,1.5v4.5c0,0.828,0.671,1.5,1.5,1.5H93.5c0.829,0,1.5-0.672,1.5-1.5v-4.5 C95,83.422,94.329,82.75,93.5,82.75z"/></svg>